<?xml version="1.0" encoding="utf-8"?>
<!-- Generator: Adobe Illustrator 16.0.0, SVG Export Plug-In . SVG Version: 6.00 Build 0)  -->
<!DOCTYPE svg PUBLIC "-//W3C//DTD SVG 1.1//EN" "http://www.w3.org/Graphics/SVG/1.1/DTD/svg11.dtd">
<svg version="1.1" id="레이어_1" xmlns="http://www.w3.org/2000/svg" xmlns:xlink="http://www.w3.org/1999/xlink" x="0px"
	 y="0px" width="1000px" height="1000px" viewBox="0 0 1000 1000" enable-background="new 0 0 1000 1000" xml:space="preserve">
<g>
	<path fill="#E83828" d="M960.692,305.367c-25.187-59.546-61.233-113.015-107.138-158.92
		c-45.906-45.906-99.375-81.954-158.921-107.139C632.968,13.225,567.482,0,500,0c-67.484,0-132.968,13.225-194.635,39.308
		c-59.544,25.185-113.013,61.233-158.919,107.139c-45.906,45.906-81.953,99.375-107.139,158.92C13.225,367.032,0,432.517,0,500
		c0,67.482,13.225,132.969,39.307,194.633c25.186,59.547,61.233,113.014,107.139,158.922
		c45.905,45.902,99.374,81.952,158.919,107.139C367.033,986.774,432.518,1000,500,1000c67.481,0,132.966-13.226,194.634-39.307
		c59.546-25.187,113.015-61.236,158.921-107.139c45.904-45.908,81.951-99.375,107.138-158.922
		C986.775,632.965,1000,567.482,1000,500C1000,432.518,986.775,367.034,960.692,305.367z M462.543,927.031
		C242.336,908.183,71.886,723.773,71.886,501.01c0-13.923,0.666-27.696,1.968-41.287c0.977-10.195,2.311-20.287,3.992-30.264
		c2.24-13.304,5.094-26.402,8.533-39.267c1.72-6.432,3.586-12.805,5.594-19.116c1.004-3.154,2.043-6.295,3.119-9.418
		C148.839,205.489,290.508,89.713,462.543,74.987V927.031z M536.439,927.023V590.211l238.014,238.014
		C707.189,884.785,623.65,919.459,536.439,927.023z M826.71,775.974L536.439,485.705V74.987
		C729.119,91.481,883.706,234.73,919.343,419.52c0.634,3.3,1.232,6.613,1.793,9.939c1.68,9.977,3.015,20.069,3.992,30.264
		c1.303,13.591,1.968,27.364,1.968,41.287C927.096,601.861,891.548,698.937,826.71,775.974z"/>
</g>
</svg>
